<svg xmlns="http://www.w3.org/2000/svg" id="Layer_1" data-name="Layer 1" viewBox="0 0 50 50" width="50" height="50"><defs id="defs4"><style id="style2">.cls-1{fill:#007558}.cls-2{fill:#fff}</style></defs><title id="title6">Soc_green</title><path class="cls-1" d="M50 25A25 25 0 1 1 25 0a25 25 0 0 1 25 25z" id="path8" fill="#007558"/><path class="cls-2" d="M39.43 18.2c-.41-.34-2-.33-3.52-.32a20.39 20.39 0 0 0-3.51.12c-.34.13-1.09 2-2.08 3.84C29.21 24 27.83 26.05 27 26c-1.13 0-.87-3.51-.8-6.08 0-1.7-.23-2.23-.48-2.4a10.12 10.12 0 0 0-2.24-.8s-4.89-.37-5.6 1.76c.93.12 2.54-.18 1.92 6.4 0 .32-.75 3-3-.64-.56-.91-2.76-6.38-3.52-6.4-2.54-.07-5-.17-5.92.32-.92.49 1.1 4.23 4.32 9.28 2.63 4.12 5.42 7.35 10.23 8.16a11.82 11.82 0 0 0 4-.16c.51-.25-.11-3.83 1.6-4.16.77-.15 3.69 3.71 4.8 4.16a11.44 11.44 0 0 0 3.68.32c1.64-.05 3.5.14 3.68-1 .4-2.47-5-5.67-5.12-7.2-.12-1.09 2-3.11 3-4.64 1.31-1.86 2.74-4.11 1.92-4.8z" id="path10" fill="#fff"/></svg>