<svg xmlns="http://www.w3.org/2000/svg" id="Layer_1" data-name="Layer 1" viewBox="0 0 50 50" width="50" height="50"><defs id="defs4"><style id="style2">.cls-1{fill:#007558}.cls-2{fill:#fff}</style></defs><title id="title6">Soc_green</title><path class="cls-1" d="M50 25A25 25 0 1 1 25 0a25 25 0 0 1 25 25z" id="path8" fill="#007558"/><path class="cls-2" d="M25.27 36.74a12.21 12.21 0 0 1-6.73-2l-4.7 1.49 1.53-4.5A12 12 0 0 1 13 24.62c0-.4 0-.79.06-1.18a12.23 12.23 0 0 1 24.35.23v.95a12.19 12.19 0 0 1-12.14 12.12zM39.8 24.25A14.54 14.54 0 0 0 10.75 24v.64a14.27 14.27 0 0 0 2.09 7.45l-2.62 7.74 8-2.56a14.56 14.56 0 0 0 21.59-12.65v-.37z" id="path10" fill="#fff"/><path class="cls-2" d="M31.51 27.8c-.36-.18-2.11-1-2.44-1.15a.56.56 0 0 0-.8.18c-.24.35-.92 1.15-1.13 1.39a.55.55 0 0 1-.77.09 9.73 9.73 0 0 1-2.87-1.76 10.61 10.61 0 0 1-2-2.45.51.51 0 0 1 .16-.72c.16-.16.36-.41.54-.62l.13-.17a3.8 3.8 0 0 0 .23-.42.65.65 0 0 0 0-.62c-.09-.18-.8-1.92-1.1-2.63-.3-.71-.59-.59-.8-.59h-.68a1.31 1.31 0 0 0-1 .44 4 4 0 0 0-1.25 2.95 4.38 4.38 0 0 0 .18 1.2 8 8 0 0 0 1.27 2.45c.18.23 2.46 3.92 6.09 5.34s3.62.94 4.28.88a3.6 3.6 0 0 0 2.45-1.7 2.94 2.94 0 0 0 .21-1.68 1.83 1.83 0 0 0-.68-.41z" id="path12" fill="#fff"/></svg>