<svg xmlns="http://www.w3.org/2000/svg" style="display:none;">
<defs>
  <style>.cls-1{fill:#007558}.cls-2{fill:#fff}</style>
</defs>
<symbol id="icon-fb" viewBox="0 0 60 60">
  <path class="cls-1" d="M50 25A25 25 0 1 1 25 0a25 25 0 0 1 25 25z"/>
  <path class="cls-2" d="M27.2 19.08v-2.37a1.25 1.25 0 0 1 1.31-1.42h3.32v-5.08h-4.58C22.18 10.19 21 14 21 16.4v2.68h-2.91V25h3v14.81H27V25h4.4l.21-2.33.33-3.6H27.2z"/>
</symbol>
<symbol id="icon-inst" viewBox="0 0 60 60">
  <circle class="cls-1" cx="25" cy="25" r="25"/>
  <path class="cls-2" d="M18.31 12.13a6.19 6.19 0 0 0-6.18 6.18v13.38a6.19 6.19 0 0 0 6.18 6.18h13.38a6.19 6.19 0 0 0 6.18-6.18V18.31a6.19 6.19 0 0 0-6.18-6.18H18.31zm13.38 28.4H18.31a8.85 8.85 0 0 1-8.84-8.84V18.31a8.85 8.85 0 0 1 8.84-8.84h13.38a8.85 8.85 0 0 1 8.84 8.84v13.38a8.85 8.85 0 0 1-8.84 8.84z"/>
  <path class="cls-2" d="M25 19.71A5.29 5.29 0 1 0 30.29 25 5.3 5.3 0 0 0 25 19.71zM25 33a8 8 0 1 1 8-8 8 8 0 0 1-8 8zM35.21 16.59a1.91 1.91 0 1 1-1.91-1.91 1.91 1.91 0 0 1 1.91 1.91z"/>
</symbol>
<symbol id="icon-vk" viewBox="0 0 60 60">
  <path class="cls-1" d="M50 25A25 25 0 1 1 25 0a25 25 0 0 1 25 25z"/>
  <path class="cls-2" d="M39.43 18.2c-.41-.34-2-.33-3.52-.32a20.39 20.39 0 0 0-3.51.12c-.34.13-1.09 2-2.08 3.84C29.21 24 27.83 26.05 27 26c-1.13 0-.87-3.51-.8-6.08 0-1.7-.23-2.23-.48-2.4a10.12 10.12 0 0 0-2.24-.8s-4.89-.37-5.6 1.76c.93.12 2.54-.18 1.92 6.4 0 .32-.75 3-3-.64-.56-.91-2.76-6.38-3.52-6.4-2.54-.07-5-.17-5.92.32s1.1 4.23 4.32 9.28c2.63 4.12 5.42 7.35 10.23 8.16a11.82 11.82 0 0 0 4-.16c.51-.25-.11-3.83 1.6-4.16.77-.15 3.69 3.71 4.8 4.16a11.44 11.44 0 0 0 3.68.32c1.64-.05 3.5.14 3.68-1 .4-2.47-5-5.67-5.12-7.2-.12-1.09 2-3.11 3-4.64 1.31-1.86 2.74-4.11 1.92-4.8z"/>
</symbol>
<symbol id="icon-whatsapp" viewBox="0 0 60 60">
  <path class="cls-1" d="M50 25A25 25 0 1 1 25 0a25 25 0 0 1 25 25z"/>
  <path class="cls-2" d="M25.27 36.74a12.21 12.21 0 0 1-6.73-2l-4.7 1.49 1.53-4.5A12 12 0 0 1 13 24.62c0-.4 0-.79.06-1.18a12.23 12.23 0 0 1 24.35.23v.95a12.19 12.19 0 0 1-12.14 12.12zM39.8 24.25A14.54 14.54 0 0 0 10.75 24v.64a14.27 14.27 0 0 0 2.09 7.45l-2.62 7.74 8-2.56a14.56 14.56 0 0 0 21.59-12.65v-.37z"/>
  <path class="cls-2" d="M31.51 27.8c-.36-.18-2.11-1-2.44-1.15a.56.56 0 0 0-.8.18c-.24.35-.92 1.15-1.13 1.39a.55.55 0 0 1-.77.09 9.73 9.73 0 0 1-2.87-1.76 10.61 10.61 0 0 1-2-2.45.51.51 0 0 1 .16-.72c.16-.16.36-.41.54-.62l.13-.17a3.8 3.8 0 0 0 .23-.42.65.65 0 0 0 0-.62c-.09-.18-.8-1.92-1.1-2.63s-.59-.59-.8-.59h-.68a1.31 1.31 0 0 0-1 .44 4 4 0 0 0-1.25 2.95 4.38 4.38 0 0 0 .18 1.2 8 8 0 0 0 1.27 2.45c.18.23 2.46 3.92 6.09 5.34s3.62.94 4.28.88a3.6 3.6 0 0 0 2.45-1.7 2.94 2.94 0 0 0 .21-1.68 1.83 1.83 0 0 0-.68-.41z"/>
</symbol>
<symbol id="icon-youtube" viewBox="0 0 60 60">
  <path class="cls-1" d="M50 25A25 25 0 1 1 25 0a25 25 0 0 1 25 25z"/>
  <path class="cls-2" d="M29.94 24.68l-8 4.32v-8.67l3.61 2 4.39 2.39zm9.57-5.86a6.86 6.86 0 0 0-1.18-3.07 4.15 4.15 0 0 0-3-1.31c-4.11-.3-10.33-.3-10.33-.3s-6.22 0-10.36.31a4.14 4.14 0 0 0-3 1.31 6.87 6.87 0 0 0-1.18 3.07 48.46 48.46 0 0 0-.3 5v2.34a48.5 48.5 0 0 0 .3 5 6.87 6.87 0 0 0 1.18 3.06 4.9 4.9 0 0 0 3.27 1.32c2.39.23 10.09.31 10.09.31s6.22 0 10.37-.32a4.14 4.14 0 0 0 3-1.31 6.85 6.85 0 0 0 1.18-3.06 48.41 48.41 0 0 0 .3-5v-2.35a48.42 48.42 0 0 0-.3-5z"/>
</symbol>
<symbol id="icon-menu" viewBox="0 0 24 24">
  <path d="M24,3c0-0.6-0.4-1-1-1H1C0.4,2,0,2.4,0,3v2c0,0.6,0.4,1,1,1h22c0.6,0,1-0.4,1-1V3z" fill="#ffffff"/>
  <path d="M24,11c0-0.6-0.4-1-1-1H1c-0.6,0-1,0.4-1,1v2c0,0.6,0.4,1,1,1h22c0.6,0,1-0.4,1-1V11z" fill="#ffffff"/>
  <path d="M24,19c0-0.6-0.4-1-1-1H1c-0.6,0-1,0.4-1,1v2c0,0.6,0.4,1,1,1h22c0.6,0,1-0.4,1-1V19z" fill="#ffffff"/>
</symbol>
<symbol id="icon-phone" viewBox="0 0 578.106 578.106">
  <path d="M577.83,456.128c1.225,9.385-1.635,17.545-8.568,24.48l-81.396,80.781 c-3.672,4.08-8.465,7.551-14.381,10.404c-5.916,2.857-11.729,4.693-17.439,5.508c-0.408,0-1.635,0.105-3.676,0.309 c-2.037,0.203-4.689,0.307-7.953,0.307c-7.754,0-20.301-1.326-37.641-3.979s-38.555-9.182-63.645-19.584 c-25.096-10.404-53.553-26.012-85.376-46.818c-31.823-20.805-65.688-49.367-101.592-85.68 c-28.56-28.152-52.224-55.08-70.992-80.783c-18.768-25.705-33.864-49.471-45.288-71.299 c-11.425-21.828-19.993-41.616-25.705-59.364S4.59,177.362,2.55,164.51s-2.856-22.95-2.448-30.294 c0.408-7.344,0.612-11.424,0.612-12.24c0.816-5.712,2.652-11.526,5.508-17.442s6.324-10.71,10.404-14.382L98.022,8.756 c5.712-5.712,12.24-8.568,19.584-8.568c5.304,0,9.996,1.53,14.076,4.59s7.548,6.834,10.404,11.322l65.484,124.236 c3.672,6.528,4.692,13.668,3.06,21.42c-1.632,7.752-5.1,14.28-10.404,19.584l-29.988,29.988c-0.816,0.816-1.53,2.142-2.142,3.978 s-0.918,3.366-0.918,4.59c1.632,8.568,5.304,18.36,11.016,29.376c4.896,9.792,12.444,21.726,22.644,35.802 s24.684,30.293,43.452,48.653c18.36,18.77,34.68,33.354,48.96,43.76c14.277,10.4,26.215,18.053,35.803,22.949 c9.588,4.896,16.932,7.854,22.031,8.871l7.648,1.531c0.816,0,2.145-0.307,3.979-0.918c1.836-0.613,3.162-1.326,3.979-2.143 l34.883-35.496c7.348-6.527,15.912-9.791,25.705-9.791c6.938,0,12.443,1.223,16.523,3.672h0.611l118.115,69.768 C571.098,441.238,576.197,447.968,577.83,456.128z" fill="#ffffff"/>
</symbol>
<symbol id="icon-mobile-phone" viewBox="0 0 27.442 27.442">
  <path d="M19.494,0H7.948C6.843,0,5.951,0.896,5.951,1.999v23.446c0,1.102,0.892,1.997,1.997,1.997h11.546 c1.103,0,1.997-0.895,1.997-1.997V1.999C21.491,0.896,20.597,0,19.494,0z M10.872,1.214h5.7c0.144,0,0.261,0.215,0.261,0.481 s-0.117,0.482-0.261,0.482h-5.7c-0.145,0-0.26-0.216-0.26-0.482C10.612,1.429,10.727,1.214,10.872,1.214z M13.722,25.469 c-0.703,0-1.275-0.572-1.275-1.276s0.572-1.274,1.275-1.274c0.701,0,1.273,0.57,1.273,1.274S14.423,25.469,13.722,25.469z M19.995,21.1H7.448V3.373h12.547V21.1z" fill="#ffffff"/>
</symbol>
<symbol id="icon-search" viewBox="0 0 56.966 56.966">
  <path d="M55.146,51.887L41.588,37.786c3.486-4.144,5.396-9.358,5.396-14.786c0-12.682-10.318-23-23-23s-23,10.318-23,23 s10.318,23,23,23c4.761,0,9.298-1.436,13.177-4.162l13.661,14.208c0.571,0.593,1.339,0.92,2.162,0.92 c0.779,0,1.518-0.297,2.079-0.837C56.255,54.982,56.293,53.08,55.146,51.887z M23.984,6c9.374,0,17,7.626,17,17s-7.626,17-17,17 s-17-7.626-17-17S14.61,6,23.984,6z" fill="#ffffff"/>
</symbol>
</svg>