<?xml version="1.0" encoding="UTF-8" standalone="no"?>
<svg
   xmlns:dc="http://purl.org/dc/elements/1.1/"
   xmlns:cc="http://creativecommons.org/ns#"
   xmlns:rdf="http://www.w3.org/1999/02/22-rdf-syntax-ns#"
   xmlns:svg="http://www.w3.org/2000/svg"
   xmlns="http://www.w3.org/2000/svg"
   xmlns:sodipodi="http://sodipodi.sourceforge.net/DTD/sodipodi-0.dtd"
   xmlns:inkscape="http://www.inkscape.org/namespaces/inkscape"
   id="Layer_1"
   data-name="Layer 1"
   viewBox="0 0 50 50"
   version="1.1"
   sodipodi:docname="inst.svg"
   width="50"
   height="50"
   inkscape:version="0.92.1 r15371">
  <metadata
     id="metadata19">
    <rdf:RDF>
      <cc:Work
         rdf:about="">
        <dc:format>image/svg+xml</dc:format>
        <dc:type
           rdf:resource="http://purl.org/dc/dcmitype/StillImage" />
      </cc:Work>
    </rdf:RDF>
  </metadata>
  <sodipodi:namedview
     pagecolor="#ffffff"
     bordercolor="#666666"
     borderopacity="1"
     objecttolerance="10"
     gridtolerance="10"
     guidetolerance="10"
     inkscape:pageopacity="0"
     inkscape:pageshadow="2"
     inkscape:window-width="751"
     inkscape:window-height="480"
     id="namedview17"
     showgrid="false"
     inkscape:zoom="3.9333333"
     inkscape:cx="30"
     inkscape:cy="20"
     inkscape:window-x="0"
     inkscape:window-y="0"
     inkscape:window-maximized="0"
     inkscape:current-layer="Layer_1" />
  <defs
     id="defs4">
    <style
       id="style2">.cls-1{fill:#007558;}.cls-2{fill:#fff;}</style>
  </defs>
  <title
     id="title6">Soc_green</title>
  <circle
     class="cls-1"
     cx="25"
     cy="25"
     r="25"
     id="circle8"
     style="fill:#007558" />
  <path
     class="cls-2"
     d="m 18.31,12.13 a 6.19,6.19 0 0 0 -6.18,6.18 v 13.38 a 6.19,6.19 0 0 0 6.18,6.18 h 13.38 a 6.19,6.19 0 0 0 6.18,-6.18 V 18.31 a 6.19,6.19 0 0 0 -6.18,-6.18 z m 13.38,28.4 H 18.31 A 8.85,8.85 0 0 1 9.47,31.69 V 18.31 a 8.85,8.85 0 0 1 8.84,-8.84 h 13.38 a 8.85,8.85 0 0 1 8.84,8.84 v 13.38 a 8.85,8.85 0 0 1 -8.84,8.84 z"
     id="path10"
     inkscape:connector-curvature="0"
     style="fill:#ffffff" />
  <path
     class="cls-2"
     d="M 25,19.71 A 5.29,5.29 0 1 0 30.29,25 5.3,5.3 0 0 0 25,19.71 Z M 25,33 a 8,8 0 1 1 8,-8 8,8 0 0 1 -8,8 z"
     id="path12"
     inkscape:connector-curvature="0"
     style="fill:#ffffff" />
  <path
     class="cls-2"
     d="m 35.21,16.59 a 1.91,1.91 0 1 1 -1.91,-1.91 1.91,1.91 0 0 1 1.91,1.91 z"
     id="path14"
     inkscape:connector-curvature="0"
     style="fill:#ffffff" />
</svg>
