<svg id="Layer_1" data-name="Layer 1" xmlns="http://www.w3.org/2000/svg" viewBox="0 0 60 60"><defs><style>.cls-1{fill:#007558;}.cls-2{fill:#fff;}</style></defs><title>Soc_green</title><path class="cls-1" d="M50,25A25,25,0,1,1,25,0,25,25,0,0,1,50,25h0Z"/><path class="cls-2" d="M39.43,18.2c-0.41-.34-2-0.33-3.52-0.32A20.39,20.39,0,0,0,32.4,18c-0.34.13-1.09,2-2.08,3.84C29.21,24,27.83,26.05,27,26c-1.13,0-.87-3.51-0.8-6.08,0-1.7-.23-2.23-0.48-2.4a10.12,10.12,0,0,0-2.24-.8s-4.89-.37-5.6,1.76c0.93,0.12,2.54-.18,1.92,6.4,0,0.32-.75,3-3-0.64-0.56-.91-2.76-6.38-3.52-6.4-2.54-.07-5-0.17-5.92.32s1.1,4.23,4.32,9.28c2.63,4.12,5.42,7.35,10.23,8.16a11.82,11.82,0,0,0,4-.16c0.51-.25-0.11-3.83,1.6-4.16,0.77-.15,3.69,3.71,4.8,4.16a11.44,11.44,0,0,0,3.68.32c1.64-.05,3.5.14,3.68-1,0.4-2.47-5-5.67-5.12-7.2-0.12-1.09,2-3.11,3-4.64,1.31-1.86,2.74-4.11,1.92-4.8h0Z"/></svg>