<?xml version="1.0" encoding="UTF-8" standalone="no"?>
<svg
   xmlns:dc="http://purl.org/dc/elements/1.1/"
   xmlns:cc="http://creativecommons.org/ns#"
   xmlns:rdf="http://www.w3.org/1999/02/22-rdf-syntax-ns#"
   xmlns:svg="http://www.w3.org/2000/svg"
   xmlns="http://www.w3.org/2000/svg"
   xmlns:sodipodi="http://sodipodi.sourceforge.net/DTD/sodipodi-0.dtd"
   xmlns:inkscape="http://www.inkscape.org/namespaces/inkscape"
   id="Layer_1"
   data-name="Layer 1"
   viewBox="0 0 50 50"
   version="1.1"
   sodipodi:docname="vk.svg"
   width="50"
   height="50"
   inkscape:version="0.92.1 r15371">
  <metadata
     id="metadata15">
    <rdf:RDF>
      <cc:Work
         rdf:about="">
        <dc:format>image/svg+xml</dc:format>
        <dc:type
           rdf:resource="http://purl.org/dc/dcmitype/StillImage" />
      </cc:Work>
    </rdf:RDF>
  </metadata>
  <sodipodi:namedview
     pagecolor="#ffffff"
     bordercolor="#666666"
     borderopacity="1"
     objecttolerance="10"
     gridtolerance="10"
     guidetolerance="10"
     inkscape:pageopacity="0"
     inkscape:pageshadow="2"
     inkscape:window-width="751"
     inkscape:window-height="480"
     id="namedview13"
     showgrid="false"
     inkscape:zoom="3.9333333"
     inkscape:cx="30"
     inkscape:cy="20"
     inkscape:window-x="0"
     inkscape:window-y="0"
     inkscape:window-maximized="0"
     inkscape:current-layer="Layer_1" />
  <defs
     id="defs4">
    <style
       id="style2">.cls-1{fill:#007558;}.cls-2{fill:#fff;}</style>
  </defs>
  <title
     id="title6">Soc_green</title>
  <path
     class="cls-1"
     d="M 50,25 A 25,25 0 1 1 25,0 25,25 0 0 1 50,25 Z"
     id="path8"
     inkscape:connector-curvature="0"
     style="fill:#007558" />
  <path
     class="cls-2"
     d="m 39.43,18.2 c -0.41,-0.34 -2,-0.33 -3.52,-0.32 A 20.39,20.39 0 0 0 32.4,18 c -0.34,0.13 -1.09,2 -2.08,3.84 C 29.21,24 27.83,26.05 27,26 c -1.13,0 -0.87,-3.51 -0.8,-6.08 0,-1.7 -0.23,-2.23 -0.48,-2.4 a 10.12,10.12 0 0 0 -2.24,-0.8 c 0,0 -4.89,-0.37 -5.6,1.76 0.93,0.12 2.54,-0.18 1.92,6.4 0,0.32 -0.75,3 -3,-0.64 -0.56,-0.91 -2.76,-6.38 -3.52,-6.4 -2.54,-0.07 -5,-0.17 -5.92,0.32 -0.92,0.49 1.1,4.23 4.32,9.28 2.63,4.12 5.42,7.35 10.23,8.16 a 11.82,11.82 0 0 0 4,-0.16 c 0.51,-0.25 -0.11,-3.83 1.6,-4.16 0.77,-0.15 3.69,3.71 4.8,4.16 a 11.44,11.44 0 0 0 3.68,0.32 c 1.64,-0.05 3.5,0.14 3.68,-1 0.4,-2.47 -5,-5.67 -5.12,-7.2 -0.12,-1.09 2,-3.11 3,-4.64 1.31,-1.86 2.74,-4.11 1.92,-4.8 v 0 z"
     id="path10"
     inkscape:connector-curvature="0"
     style="fill:#ffffff" />
</svg>
