<?xml version="1.0" encoding="utf-8"?>
<!-- Generator: Adobe Illustrator 19.2.1, SVG Export Plug-In . SVG Version: 6.00 Build 0)  -->
<svg version="1.1" id="Layer_1" xmlns="http://www.w3.org/2000/svg" xmlns:xlink="http://www.w3.org/1999/xlink" x="0px" y="0px"
	 viewBox="0 0 1920 20" style="enable-background:new 0 0 1920 20;" xml:space="preserve">
<style type="text/css">
	.st0{fill:#FFFFFF;}
</style>
<path class="st0" d="M1911.7,0.5c-2.8,0.4-5.3,1-7.4,1.7c-1.4,0.5-2.7,1-4,1.5c-1.3,0.5-2.5,1.1-3.7,1.6c-6,2.8-12.3,5.6-24.6,5.6
	s-18.6-2.8-24.6-5.6c-1.2-0.6-2.4-1.1-3.7-1.6c-1.3-0.5-2.6-1-4-1.5c-2.2-0.7-4.6-1.3-7.4-1.7c-2.4-0.3-5.1-0.5-8.3-0.5
	s-5.9,0.2-8.3,0.5c-2.8,0.4-5.3,1-7.4,1.7c-1.4,0.5-2.7,1-4,1.5c-1.3,0.5-2.5,1.1-3.7,1.6c-6,2.8-12.3,5.6-24.6,5.6
	s-18.6-2.8-24.6-5.6c-1.2-0.6-2.4-1.1-3.7-1.6c-1.3-0.5-2.6-1-4-1.5c-2.2-0.7-4.6-1.3-7.4-1.7c-2.4-0.3-5.1-0.5-8.3-0.5
	s-5.9,0.2-8.3,0.5c-2.8,0.4-5.3,1-7.4,1.7c-1.4,0.5-2.7,1-4,1.5c-1.3,0.5-2.5,1.1-3.7,1.6c-6,2.8-12.3,5.6-24.6,5.6
	s-18.6-2.8-24.6-5.6c-1.2-0.6-2.4-1.1-3.7-1.6c-1.3-0.5-2.6-1-4-1.5c-2.2-0.7-4.6-1.3-7.4-1.7c-2.4-0.3-5.1-0.5-8.3-0.5
	s-5.9,0.2-8.3,0.5c-2.8,0.4-5.3,1-7.4,1.7c-1.4,0.5-2.7,1-4,1.5c-1.3,0.5-2.5,1.1-3.7,1.6c-6,2.8-12.3,5.6-24.6,5.6
	s-18.6-2.8-24.6-5.6c-1.2-0.6-2.4-1.1-3.7-1.6c-1.3-0.5-2.6-1-4-1.5c-2.2-0.7-4.6-1.3-7.4-1.7c-2.4-0.3-5.1-0.5-8.3-0.5
	s-5.9,0.2-8.3,0.5c-2.8,0.4-5.3,1-7.4,1.7c-1.4,0.5-2.7,1-4,1.5c-1.3,0.5-2.5,1.1-3.7,1.6c-6,2.8-12.3,5.6-24.6,5.6
	s-18.6-2.8-24.6-5.6c-1.2-0.6-2.4-1.1-3.7-1.6c-1.3-0.5-2.6-1-4-1.5c-2.2-0.7-4.6-1.3-7.4-1.7c-2.4-0.3-5.1-0.5-8.3-0.5
	s-5.9,0.2-8.3,0.5c-2.8,0.4-5.3,1-7.4,1.7c-1.4,0.5-2.7,1-4,1.5c-1.3,0.5-2.5,1.1-3.7,1.6c-6,2.8-12.3,5.6-24.6,5.6
	s-18.6-2.8-24.6-5.6c-1.2-0.6-2.4-1.1-3.7-1.6c-1.3-0.5-2.6-1-4-1.5c-2.2-0.7-4.6-1.3-7.4-1.7c-2.4-0.3-5.1-0.5-8.3-0.5
	s-5.9,0.2-8.3,0.5c-2.8,0.4-5.3,1-7.4,1.7c-1.4,0.5-2.7,1-4,1.5c-1.3,0.5-2.5,1.1-3.7,1.6c-6,2.8-12.3,5.6-24.6,5.6
	s-18.6-2.8-24.6-5.6c-1.2-0.6-2.4-1.1-3.7-1.6c-1.3-0.5-2.6-1-4-1.5c-2.2-0.7-4.6-1.3-7.4-1.7c-2.4-0.3-5.1-0.5-8.3-0.5
	s-5.9,0.2-8.3,0.5c-2.8,0.4-5.3,1-7.4,1.7c-1.4,0.5-2.7,1-4,1.5c-1.3,0.5-2.5,1.1-3.7,1.6c-6,2.8-12.3,5.6-24.6,5.6
	s-18.6-2.8-24.6-5.6c-1.2-0.6-2.4-1.1-3.7-1.6c-1.3-0.5-2.6-1-4-1.5c-2.2-0.7-4.6-1.3-7.4-1.7c-2.4-0.3-5.1-0.5-8.3-0.5
	s-5.9,0.2-8.3,0.5c-2.8,0.4-5.3,1-7.4,1.7c-1.4,0.5-2.7,1-4,1.5c-1.3,0.5-2.5,1.1-3.7,1.6c-6,2.8-12.3,5.6-24.6,5.6
	s-18.6-2.8-24.6-5.6c-1.2-0.6-2.4-1.1-3.7-1.6c-1.3-0.5-2.6-1-4-1.5c-2.2-0.7-4.6-1.3-7.4-1.7c-2.4-0.3-5.1-0.5-8.3-0.5
	s-5.9,0.2-8.3,0.5c-2.8,0.4-5.3,1-7.4,1.7c-1.4,0.5-2.7,1-4,1.5c-1.3,0.5-2.5,1.1-3.7,1.6c-6,2.8-12.3,5.6-24.6,5.6
	s-18.6-2.8-24.6-5.6c-1.2-0.6-2.4-1.1-3.7-1.6c-1.3-0.5-2.6-1-4-1.5c-2.2-0.7-4.6-1.3-7.4-1.7C965.9,0.2,963.2,0,960,0
	s-5.9,0.2-8.3,0.5c-2.8,0.4-5.3,1-7.4,1.7c-1.4,0.5-2.7,1-4,1.5c-1.3,0.5-2.5,1.1-3.7,1.6c-6,2.8-12.3,5.6-24.6,5.6
	s-18.6-2.8-24.6-5.6c-1.2-0.6-2.4-1.1-3.7-1.6c-1.3-0.5-2.6-1-4-1.5c-2.2-0.7-4.6-1.3-7.4-1.7C869.9,0.2,867.2,0,864,0
	s-5.9,0.2-8.3,0.5c-2.8,0.4-5.3,1-7.4,1.7c-1.4,0.5-2.7,1-4,1.5c-1.3,0.5-2.5,1.1-3.7,1.6c-6,2.8-12.3,5.6-24.6,5.6
	s-18.6-2.8-24.6-5.6c-1.2-0.6-2.4-1.1-3.7-1.6c-1.3-0.5-2.6-1-4-1.5c-2.2-0.7-4.6-1.3-7.4-1.7C773.9,0.2,771.2,0,768,0
	c-3.2,0-5.9,0.2-8.3,0.5c-2.8,0.4-5.3,1-7.4,1.7c-1.4,0.5-2.7,1-4,1.5c-1.3,0.5-2.5,1.1-3.7,1.6c-6,2.8-12.3,5.6-24.6,5.6
	s-18.6-2.8-24.6-5.6c-1.2-0.6-2.4-1.1-3.7-1.6c-1.3-0.5-2.6-1-4-1.5c-2.2-0.7-4.6-1.3-7.4-1.7C677.9,0.2,675.2,0,672,0
	s-5.9,0.2-8.3,0.5c-2.8,0.4-5.3,1-7.4,1.7c-1.4,0.5-2.7,1-4,1.5c-1.3,0.5-2.5,1.1-3.7,1.6c-6,2.8-12.3,5.6-24.6,5.6
	s-18.6-2.8-24.6-5.6c-1.2-0.6-2.4-1.1-3.7-1.6c-1.3-0.5-2.6-1-4-1.5c-2.2-0.7-4.6-1.3-7.4-1.7C581.9,0.2,579.2,0,576,0
	s-5.9,0.2-8.3,0.5c-2.8,0.4-5.3,1-7.4,1.7c-1.4,0.5-2.7,1-4,1.5c-1.3,0.5-2.5,1.1-3.7,1.6c-6,2.8-12.3,5.6-24.6,5.6
	s-18.6-2.8-24.6-5.6c-1.2-0.6-2.4-1.1-3.7-1.6c-1.3-0.5-2.6-1-4-1.5c-2.2-0.7-4.6-1.3-7.4-1.7C485.9,0.2,483.2,0,480,0
	s-5.9,0.2-8.3,0.5c-2.8,0.4-5.3,1-7.4,1.7c-1.4,0.5-2.7,1-4,1.5c-1.3,0.5-2.5,1.1-3.7,1.6c-6,2.8-12.3,5.6-24.6,5.6
	s-18.6-2.8-24.6-5.6c-1.2-0.6-2.4-1.1-3.7-1.6c-1.3-0.5-2.6-1-4-1.5c-2.2-0.7-4.6-1.3-7.4-1.7C389.9,0.2,387.2,0,384,0
	s-5.9,0.2-8.3,0.5c-2.8,0.4-5.3,1-7.4,1.7c-1.4,0.5-2.7,1-4,1.5c-1.3,0.5-2.5,1.1-3.7,1.6c-6,2.8-12.3,5.6-24.6,5.6
	s-18.6-2.8-24.6-5.6c-1.2-0.6-2.4-1.1-3.7-1.6c-1.3-0.5-2.6-1-4-1.5c-2.2-0.7-4.6-1.3-7.4-1.7C293.9,0.2,291.2,0,288,0
	s-5.9,0.2-8.3,0.5c-2.8,0.4-5.3,1-7.4,1.7c-1.4,0.5-2.7,1-4,1.5c-1.3,0.5-2.5,1.1-3.7,1.6c-6,2.8-12.3,5.6-24.6,5.6
	s-18.6-2.8-24.6-5.6c-1.2-0.6-2.4-1.1-3.7-1.6c-1.3-0.5-2.6-1-4-1.5c-2.2-0.7-4.6-1.3-7.4-1.7C197.9,0.2,195.2,0,192,0
	s-5.9,0.2-8.3,0.5c-2.8,0.4-5.3,1-7.4,1.7c-1.4,0.5-2.7,1-4,1.5c-1.3,0.5-2.5,1.1-3.7,1.6c-6,2.8-12.3,5.6-24.6,5.6
	s-18.6-2.8-24.6-5.6c-1.2-0.6-2.4-1.1-3.7-1.6c-1.3-0.5-2.6-1-4-1.5c-2.2-0.7-4.6-1.3-7.4-1.7C101.9,0.2,99.2,0,96,0
	s-5.9,0.2-8.3,0.5c-2.8,0.4-5.3,1-7.4,1.7c-1.4,0.5-2.7,1-4,1.5c-1.3,0.5-2.5,1.1-3.7,1.6c-6,2.8-12.3,5.6-24.6,5.6
	S29.4,8.1,23.4,5.3c-1.2-0.6-2.4-1.1-3.7-1.6c-1.3-0.5-2.6-1-4-1.5c-2.2-0.7-4.6-1.3-7.4-1.7C5.9,0.2,3.2,0,0,0v20h1152h768V0
	C1916.8,0,1914.1,0.2,1911.7,0.5z"/>
</svg>
