<svg id="Layer_1" data-name="Layer 1" xmlns="http://www.w3.org/2000/svg" viewBox="0 0 60 60"><defs><style>.cls-1{fill:#007558;}.cls-2{fill:#fff;}</style></defs><title>Soc_green</title><path class="cls-1" d="M50,25A25,25,0,1,1,25,0,25,25,0,0,1,50,25h0Z"/><path class="cls-2" d="M25.27,36.74a12.21,12.21,0,0,1-6.73-2l-4.7,1.49,1.53-4.5A12,12,0,0,1,13,24.62c0-.4,0-0.79.06-1.18a12.23,12.23,0,0,1,24.35.23c0,0.31,0,.63,0,0.95A12.19,12.19,0,0,1,25.27,36.74h0ZM39.8,24.25A14.54,14.54,0,0,0,10.75,24c0,0.21,0,.42,0,0.64a14.27,14.27,0,0,0,2.09,7.45l-2.62,7.74,8-2.56A14.56,14.56,0,0,0,39.81,24.62c0-.12,0-0.24,0-0.37h0Z"/><path class="cls-2" d="M31.51,27.8c-0.36-.18-2.11-1-2.44-1.15a0.56,0.56,0,0,0-.8.18c-0.24.35-.92,1.15-1.13,1.39a0.55,0.55,0,0,1-.77.09,9.73,9.73,0,0,1-2.87-1.76,10.61,10.61,0,0,1-2-2.45,0.51,0.51,0,0,1,.16-0.72c0.16-.16.36-0.41,0.54-0.62l0.13-.17a3.8,3.8,0,0,0,.23-0.42,0.65,0.65,0,0,0,0-.62c-0.09-.18-0.8-1.92-1.1-2.63s-0.59-.59-0.8-0.59-0.44,0-.68,0a1.31,1.31,0,0,0-1,.44,4,4,0,0,0-1.25,2.95,4.38,4.38,0,0,0,.18,1.2,8,8,0,0,0,1.27,2.45c0.18,0.23,2.46,3.92,6.09,5.34s3.62,0.94,4.28.88A3.6,3.6,0,0,0,32,29.89a2.94,2.94,0,0,0,.21-1.68,1.83,1.83,0,0,0-.68-0.41h0Z"/></svg>