<?xml version="1.0" encoding="UTF-8" standalone="no"?>
<svg
   xmlns:dc="http://purl.org/dc/elements/1.1/"
   xmlns:cc="http://creativecommons.org/ns#"
   xmlns:rdf="http://www.w3.org/1999/02/22-rdf-syntax-ns#"
   xmlns:svg="http://www.w3.org/2000/svg"
   xmlns="http://www.w3.org/2000/svg"
   xmlns:sodipodi="http://sodipodi.sourceforge.net/DTD/sodipodi-0.dtd"
   xmlns:inkscape="http://www.inkscape.org/namespaces/inkscape"
   id="Layer_1"
   data-name="Layer 1"
   viewBox="0 0 50 50"
   version="1.1"
   sodipodi:docname="whatsapp.svg"
   width="50"
   height="50"
   inkscape:version="0.92.1 r15371">
  <metadata
     id="metadata17">
    <rdf:RDF>
      <cc:Work
         rdf:about="">
        <dc:format>image/svg+xml</dc:format>
        <dc:type
           rdf:resource="http://purl.org/dc/dcmitype/StillImage" />
      </cc:Work>
    </rdf:RDF>
  </metadata>
  <sodipodi:namedview
     pagecolor="#ffffff"
     bordercolor="#666666"
     borderopacity="1"
     objecttolerance="10"
     gridtolerance="10"
     guidetolerance="10"
     inkscape:pageopacity="0"
     inkscape:pageshadow="2"
     inkscape:window-width="751"
     inkscape:window-height="480"
     id="namedview15"
     showgrid="false"
     inkscape:zoom="3.9333333"
     inkscape:cx="30"
     inkscape:cy="20"
     inkscape:window-x="0"
     inkscape:window-y="0"
     inkscape:window-maximized="0"
     inkscape:current-layer="Layer_1" />
  <defs
     id="defs4">
    <style
       id="style2">.cls-1{fill:#007558;}.cls-2{fill:#fff;}</style>
  </defs>
  <title
     id="title6">Soc_green</title>
  <path
     class="cls-1"
     d="M 50,25 A 25,25 0 1 1 25,0 25,25 0 0 1 50,25 Z"
     id="path8"
     inkscape:connector-curvature="0"
     style="fill:#007558" />
  <path
     class="cls-2"
     d="m 25.27,36.74 a 12.21,12.21 0 0 1 -6.73,-2 l -4.7,1.49 1.53,-4.5 A 12,12 0 0 1 13,24.62 c 0,-0.4 0,-0.79 0.06,-1.18 a 12.23,12.23 0 0 1 24.35,0.23 c 0,0.31 0,0.63 0,0.95 A 12.19,12.19 0 0 1 25.27,36.74 Z M 39.8,24.25 A 14.54,14.54 0 0 0 10.75,24 c 0,0.21 0,0.42 0,0.64 a 14.27,14.27 0 0 0 2.09,7.45 l -2.62,7.74 8,-2.56 A 14.56,14.56 0 0 0 39.81,24.62 c 0,-0.12 0,-0.24 0,-0.37 v 0 z"
     id="path10"
     inkscape:connector-curvature="0"
     style="fill:#ffffff" />
  <path
     class="cls-2"
     d="m 31.51,27.8 c -0.36,-0.18 -2.11,-1 -2.44,-1.15 a 0.56,0.56 0 0 0 -0.8,0.18 c -0.24,0.35 -0.92,1.15 -1.13,1.39 a 0.55,0.55 0 0 1 -0.77,0.09 9.73,9.73 0 0 1 -2.87,-1.76 10.61,10.61 0 0 1 -2,-2.45 0.51,0.51 0 0 1 0.16,-0.72 c 0.16,-0.16 0.36,-0.41 0.54,-0.62 l 0.13,-0.17 a 3.8,3.8 0 0 0 0.23,-0.42 0.65,0.65 0 0 0 0,-0.62 c -0.09,-0.18 -0.8,-1.92 -1.1,-2.63 -0.3,-0.71 -0.59,-0.59 -0.8,-0.59 -0.21,0 -0.44,0 -0.68,0 a 1.31,1.31 0 0 0 -1,0.44 4,4 0 0 0 -1.25,2.95 4.38,4.38 0 0 0 0.18,1.2 8,8 0 0 0 1.27,2.45 c 0.18,0.23 2.46,3.92 6.09,5.34 3.63,1.42 3.62,0.94 4.28,0.88 A 3.6,3.6 0 0 0 32,29.89 2.94,2.94 0 0 0 32.21,28.21 1.83,1.83 0 0 0 31.53,27.8 v 0 z"
     id="path12"
     inkscape:connector-curvature="0"
     style="fill:#ffffff" />
</svg>
