<svg id="Layer_1" data-name="Layer 1" xmlns="http://www.w3.org/2000/svg" viewBox="0 0 60 60"><defs><style>.cls-1{fill:#007558;}.cls-2{fill:#fff;}</style></defs><title>Soc_green</title><path class="cls-1" d="M50,25A25,25,0,1,1,25,0,25,25,0,0,1,50,25h0Z"/><path class="cls-2" d="M29.94,24.68l-8,4.32V20.33l3.61,2,4.39,2.39h0Zm9.57-5.86a6.86,6.86,0,0,0-1.18-3.07,4.15,4.15,0,0,0-3-1.31C31.22,14.14,25,14.14,25,14.14h0s-6.22,0-10.36.31a4.14,4.14,0,0,0-3,1.31,6.87,6.87,0,0,0-1.18,3.07,48.46,48.46,0,0,0-.3,5v2.34a48.5,48.5,0,0,0,.3,5,6.87,6.87,0,0,0,1.18,3.06,4.9,4.9,0,0,0,3.27,1.32C17.3,35.78,25,35.86,25,35.86s6.22,0,10.37-.32a4.14,4.14,0,0,0,3-1.31,6.85,6.85,0,0,0,1.18-3.06,48.41,48.41,0,0,0,.3-5V23.82a48.42,48.42,0,0,0-.3-5h0Z"/></svg>