<svg xmlns="http://www.w3.org/2000/svg" id="Layer_1" data-name="Layer 1" viewBox="0 0 50 50" width="50" height="50"><defs id="defs4"><style id="style2">.cls-1{fill:#007558}.cls-2{fill:#fff}</style></defs><title id="title6">Soc_green</title><circle class="cls-1" cx="25" cy="25" r="25" id="circle8" fill="#007558"/><path class="cls-2" d="M18.31 12.13a6.19 6.19 0 0 0-6.18 6.18v13.38a6.19 6.19 0 0 0 6.18 6.18h13.38a6.19 6.19 0 0 0 6.18-6.18V18.31a6.19 6.19 0 0 0-6.18-6.18zm13.38 28.4H18.31a8.85 8.85 0 0 1-8.84-8.84V18.31a8.85 8.85 0 0 1 8.84-8.84h13.38a8.85 8.85 0 0 1 8.84 8.84v13.38a8.85 8.85 0 0 1-8.84 8.84z" id="path10" fill="#fff"/><path class="cls-2" d="M25 19.71A5.29 5.29 0 1 0 30.29 25 5.3 5.3 0 0 0 25 19.71zM25 33a8 8 0 1 1 8-8 8 8 0 0 1-8 8z" id="path12" fill="#fff"/><path class="cls-2" d="M35.21 16.59a1.91 1.91 0 1 1-1.91-1.91 1.91 1.91 0 0 1 1.91 1.91z" id="path14" fill="#fff"/></svg>